<?xml version="1.0" encoding="utf-8"?>
<!-- Generator: Adobe Illustrator 24.3.0, SVG Export Plug-In . SVG Version: 6.00 Build 0)  -->
<svg version="1.1" id="Layer_1" xmlns="http://www.w3.org/2000/svg" xmlns:xlink="http://www.w3.org/1999/xlink" x="0px" y="0px"
	 viewBox="0 0 319.2 143.1" style="enable-background:new 0 0 319.2 143.1;" xml:space="preserve">
<style type="text/css">
	.st0{fill:none;stroke:#000000;stroke-miterlimit:10;}
</style>
<path class="st0" d="M13,73.2c-2.1-2.8,1.2-5.1,2.1-5.4l94.8-32.1c2.7-0.9,6-4.3,4.4-6.8"/>
<path class="st0" d="M69.9,49.7c3.2,19.9,5.1,45.6,4.2,65.7c-0.4,7.9-2.1,17.3-9.4,20.3c-6.6,2.7-14-1.5-19.4-6.2
	c-0.8-0.6-1.4-1.4-1.7-2.3c-0.4-2.2,2-3.6,4.1-4.4c21.5-7.5,45.5-6.6,66.3-15.7c3.6-1.6,7.6-4.3,7.3-8.2"/>
<path class="st0" d="M142.8,10.7l1.1-4.7c6.8,1.3,8.5,9,9,15.3c0.4,4.9,0.7,9.9-0.7,14.7s-5,9.5-10.2,11.2"/>
<path class="st0" d="M168.9,48.6c9.3-2.3,18.7,5.9,21.2,15.2s0.1,19.2-2.3,28.4c2.4-13.8,4.8-27.8,11.2-40.2
	c1.9-3.6,4.2-7.3,7.8-9.4c6.9-4.1,16.2-1,21.7,4.9s7.9,13.8,10.2,21.5c0.1-9.6,3.4-19,9.3-26.5c3.9-5,9.2-9.1,15.4-10.5
	c6.2-1.3,13.3,0.7,16.9,5.9c4.5,6.6,2.3,15.4,2,23.3c-0.3,8,3.8,18,11.8,17.6c4.1-0.2,7.3-3.2,10.2-6.1"/>
</svg>
