<?xml version="1.0" encoding="utf-8"?>
<!-- Generator: Adobe Illustrator 24.3.0, SVG Export Plug-In . SVG Version: 6.00 Build 0)  -->
<svg version="1.1" id="Layer_1" xmlns="http://www.w3.org/2000/svg" xmlns:xlink="http://www.w3.org/1999/xlink" x="0px" y="0px"
	 viewBox="0 0 600 500" style="enable-background:new 0 0 600 500;" xml:space="preserve">
<style type="text/css">
	.st0{fill:#424242;}
	.st1{fill:#33AA75;}
	.st2{fill:#FFFFFF;}
	.st3{fill:#555555;}
</style>
<g id="Group_25" transform="translate(-228 -105)">
	<path id="Path_607" class="st0" d="M495.1,240.7h-2.4v-65.5c0-21-17-38-38-38l0,0H316c-21,0-38,17-38,38l0,0v359.6
		c0,21,17,38,38,38l0,0h138.9c21,0,38-17,38-38l0,0V287.4h2.4L495.1,240.7L495.1,240.7z"/>
	<path id="Path_608" class="st1" d="M484.7,175.5v359.1c0,15.7-12.7,28.3-28.3,28.3H316.8c-15.7,0-28.3-12.7-28.3-28.3V175.5
		c0-15.7,12.7-28.3,28.3-28.3h16.9c-2.8,6.9,0.5,14.8,7.4,17.6c1.6,0.7,3.3,1,5.1,1h79.6c7.4,0,13.5-6,13.5-13.5
		c0-1.8-0.3-3.5-1-5.1h18.1C472,147.1,484.7,159.8,484.7,175.5L484.7,175.5z"/>
	<path class="st2" d="M448.3,465.9H324.9c-11.4,0-20.6-9.2-20.6-20.6V264.7c0-11.4,9.2-20.6,20.6-20.6h123.3
		c11.4,0,20.6,9.2,20.6,20.6v180.6C468.9,456.7,459.6,465.9,448.3,465.9z"/>
</g>
<g id="Group_25_1_" transform="translate(-228 -105)">
	<path id="Path_607_3_" class="st0" d="M787.9,240.7h-2.4v-65.5c0-21-17-38-38-38l0,0H608.8c-21,0-38,17-38,38l0,0v359.6
		c0,21,17,38,38,38l0,0h138.9c21,0,38-17,38-38l0,0V287.4h2.4L787.9,240.7L787.9,240.7z"/>
	<path id="Path_608_1_" class="st1" d="M777.5,175.5v359.1c0,15.7-12.7,28.3-28.3,28.3H609.6c-15.7,0-28.3-12.7-28.3-28.3V175.5
		c0-15.7,12.7-28.3,28.3-28.3h16.9c-2.8,6.9,0.5,14.8,7.4,17.6c1.6,0.7,3.3,1,5.1,1h79.6c7.4,0,13.5-6,13.5-13.5
		c0-1.8-0.3-3.5-1-5.1h18.1C764.8,147.1,777.5,159.8,777.5,175.5L777.5,175.5z"/>
	<path class="st2" d="M751.7,562.9H607.1c-14.3,0-25.8-11.6-25.8-25.8V366.9c0-14.3,11.6-25.8,25.8-25.8h144.6
		c14.3,0,25.8,11.6,25.8,25.8v170.1C777.5,551.3,765.9,562.9,751.7,562.9z"/>
</g>
<path class="st3" d="M466,250.8h-29.3c-1.2,0-2.2,1-2.2,2.2l0,0c0,1.2,1,2.2,2.2,2.2H466c1.2,0,2.2-1,2.2-2.2l0,0
	C468.2,251.8,467.2,250.8,466,250.8z"/>
</svg>
