<svg id="Layer_1" data-name="Layer 1" xmlns="http://www.w3.org/2000/svg" viewBox="0 0 359.83 293.84"><defs><style>.cls-1{fill:#555;}</style></defs><path class="cls-1" d="M439.76,110.57a7.52,7.52,0,0,1-2.15,2.65L268.44,248.9l-.14.09a15.81,15.81,0,0,1-1.8,1.1,15.18,15.18,0,0,1-5.5.91,15,15,0,0,1-4.84-.91,18.72,18.72,0,0,1-1.94-1.19L85.05,113.22a7.52,7.52,0,0,1-2.15-2.65A14.46,14.46,0,0,1,81.78,101a15.78,15.78,0,0,1,3.39-6.54,8.48,8.48,0,0,1,1.23-1.16l20.49-23.1a10.11,10.11,0,0,1,2.2-1.27,23.89,23.89,0,0,1,9.63-1.79c6,.13,12.17,5.44,13.84,6.51,0,0,.39.27.73.53,3.09,2.29,27.9,21.29,120.93,96.32a10.86,10.86,0,0,0,13.58,0L388.37,74.21c.16-.13.41-.32.73-.53,1.67-1.07,7.85-6.38,13.84-6.51A23.89,23.89,0,0,1,412.57,69a10.11,10.11,0,0,1,2.2,1.27l21.49,23.1a8.48,8.48,0,0,1,1.23,1.16,15.78,15.78,0,0,1,3.39,6.54A14.46,14.46,0,0,1,439.76,110.57Z" transform="translate(-81.41 -67.16)"/><path class="cls-1" d="M439.76,220.57a7.52,7.52,0,0,1-2.15,2.65L268.44,358.9l-.14.09a15.81,15.81,0,0,1-1.8,1.1,15.18,15.18,0,0,1-5.5.91,15,15,0,0,1-4.84-.91,18.72,18.72,0,0,1-1.94-1.19L85.05,223.22a7.52,7.52,0,0,1-2.15-2.65A14.46,14.46,0,0,1,81.78,211a15.78,15.78,0,0,1,3.39-6.54,8.48,8.48,0,0,1,1.23-1.16l21.49-23.1a10.11,10.11,0,0,1,2.2-1.27,23.89,23.89,0,0,1,9.63-1.79c6,.13,12.17,5.44,13.84,6.51,0,0,.39.27.73.53,3.09,2.29,26.9,21.29,119.93,96.32a10.86,10.86,0,0,0,13.58,0l120.57-96.36c.16-.13.41-.32.73-.53,1.67-1.07,7.85-6.38,13.84-6.51a23.89,23.89,0,0,1,9.63,1.79,10.11,10.11,0,0,1,2.2,1.27l21.49,23.1a8.48,8.48,0,0,1,1.23,1.16,15.78,15.78,0,0,1,3.39,6.54A14.46,14.46,0,0,1,439.76,220.57Z" transform="translate(-81.41 -67.16)"/></svg>