<?xml version="1.0" encoding="utf-8"?>
<!-- Generator: Adobe Illustrator 24.3.0, SVG Export Plug-In . SVG Version: 6.00 Build 0)  -->
<svg version="1.1" xmlns="http://www.w3.org/2000/svg" xmlns:xlink="http://www.w3.org/1999/xlink" x="0px" y="0px"
	 viewBox="0 0 1000 500" style="enable-background:new 0 0 1000 500;" xml:space="preserve">
<style type="text/css">
	.st0{fill:url(#SVGID_1_);}
	.st1{fill:#FFFFFF;}
</style>
<g id="Layer_2">
	<linearGradient id="SVGID_1_" gradientUnits="userSpaceOnUse" x1="17.3314" y1="471.0263" x2="973.9875" y2="32.949">
		<stop  offset="0" style="stop-color:#FFAF00"/>
		<stop  offset="1" style="stop-color:#AF00FF"/>
	</linearGradient>
	<rect class="st0" width="1000" height="500"/>
</g>
<g id="Layer_1">
	<g>
		
			<image style="overflow:visible;opacity:0.2;" width="743" height="295" xlink:href="49228ADC6472A3B2.png"  transform="matrix(1 0 0 1 6 25)">
		</image>
		<g>
			<g>
				<g>
					<path class="st1" d="M128.2,213c-13.3,0-24.4-1.9-33.2-5.7c-8.8-3.8-15.5-8.8-20-14.9c-4.5-6.1-6.9-12.7-7.2-19.6
						c0-1.1,0.4-2,1.3-2.9c0.9-0.9,1.9-1.3,3.1-1.3h25.2c1.9,0,3.3,0.3,4.3,1c1,0.7,1.9,1.5,2.7,2.6c1.1,2,2.6,3.9,4.5,5.8
						c1.9,1.9,4.5,3.4,7.6,4.5c3.1,1.1,7,1.7,11.7,1.7c7.7,0,13.6-1.2,17.5-3.6c3.9-2.4,5.9-5.7,5.9-9.8c0-2.9-1.1-5.4-3.2-7.3
						c-2.1-1.9-5.6-3.7-10.3-5.2c-4.7-1.5-11-3.1-18.9-4.7c-10.1-2.1-18.8-4.9-25.9-8.3c-7.1-3.4-12.6-7.9-16.3-13.4
						c-3.7-5.5-5.6-12.4-5.6-20.7c0-8.1,2.3-15.4,6.9-21.8c4.6-6.4,11-11.4,19.3-15c8.3-3.6,18.1-5.4,29.4-5.4
						c9.2,0,17.3,1.2,24.3,3.6s12.9,5.6,17.7,9.6s8.4,8.2,10.9,12.7c2.5,4.5,3.8,8.8,3.9,13.1c0,1.1-0.4,2-1.2,2.9
						c-0.8,0.9-1.8,1.3-3,1.3h-26.4c-1.5,0-2.7-0.3-3.8-0.8c-1.1-0.5-2-1.4-2.8-2.6c-0.8-2.9-2.9-5.5-6.3-7.7
						c-3.4-2.2-7.8-3.3-13.3-3.3c-5.9,0-10.4,1-13.7,3.1c-3.3,2.1-4.9,5.2-4.9,9.5c0,2.7,0.9,5,2.7,7c1.8,2,4.8,3.7,9,5.2
						c4.2,1.5,10,3,17.3,4.6c12.1,2.3,21.9,5.1,29.4,8.5c7.5,3.4,12.9,7.8,16.4,13.2c3.5,5.4,5.2,12.2,5.2,20.3
						c0,9.1-2.6,16.9-7.7,23.5c-5.1,6.6-12.2,11.6-21.3,15.1C150.3,211.3,139.9,213,128.2,213z"/>
					<path class="st1" d="M254.2,213c-15.7,0-28.3-4.3-37.6-12.8c-9.3-8.5-14.2-21.2-14.6-38c0-0.9,0-2.1,0-3.6c0-1.5,0-2.6,0-3.4
						c0.4-10.5,2.8-19.6,7.1-27.1c4.3-7.5,10.3-13.3,18-17.2c7.7-3.9,16.6-5.9,26.9-5.9c11.7,0,21.4,2.3,29.1,7
						c7.7,4.7,13.4,11,17.3,19c3.9,8,5.8,17.1,5.8,27.4v4.8c0,1.5-0.5,2.7-1.5,3.6c-1,0.9-2.2,1.4-3.5,1.4h-64c0,0.1,0,0.3,0,0.6
						c0,0.3,0,0.5,0,0.8c0.1,3.9,0.8,7.4,2,10.6c1.2,3.2,3.1,5.7,5.6,7.6c2.5,1.9,5.6,2.8,9.2,2.8c2.7,0,4.9-0.4,6.7-1.3
						c1.8-0.9,3.3-1.9,4.5-3c1.2-1.1,2.1-2.1,2.8-2.9c1.2-1.3,2.2-2.2,2.9-2.5c0.7-0.3,1.9-0.5,3.5-0.5h24.8c1.3,0,2.4,0.4,3.3,1.1
						c0.9,0.7,1.2,1.8,1.1,3.1c-0.1,2.3-1.3,5-3.4,8.2c-2.1,3.2-5.2,6.4-9.3,9.5c-4.1,3.1-9.2,5.7-15.3,7.7
						C269.5,212,262.3,213,254.2,213z M237.2,148.4H271V148c0-4.3-0.6-8-1.9-11.2c-1.3-3.2-3.2-5.7-5.8-7.4
						c-2.6-1.7-5.7-2.6-9.3-2.6s-6.6,0.9-9.1,2.6c-2.5,1.7-4.4,4.2-5.7,7.4c-1.3,3.2-2,6.9-2,11.2V148.4z"/>
					<path class="st1" d="M373,213c-15.7,0-28.3-4.3-37.6-12.8c-9.3-8.5-14.2-21.2-14.6-38c0-0.9,0-2.1,0-3.6c0-1.5,0-2.6,0-3.4
						c0.4-10.5,2.8-19.6,7.1-27.1c4.3-7.5,10.3-13.3,18-17.2c7.7-3.9,16.6-5.9,26.9-5.9c11.7,0,21.4,2.3,29.1,7
						c7.7,4.7,13.4,11,17.3,19c3.9,8,5.8,17.1,5.8,27.4v4.8c0,1.5-0.5,2.7-1.5,3.6c-1,0.9-2.2,1.4-3.5,1.4h-64c0,0.1,0,0.3,0,0.6
						c0,0.3,0,0.5,0,0.8c0.1,3.9,0.8,7.4,2,10.6c1.2,3.2,3.1,5.7,5.6,7.6c2.5,1.9,5.6,2.8,9.2,2.8c2.7,0,4.9-0.4,6.7-1.3
						c1.8-0.9,3.3-1.9,4.5-3c1.2-1.1,2.1-2.1,2.8-2.9c1.2-1.3,2.2-2.2,2.9-2.5c0.7-0.3,1.9-0.5,3.5-0.5H418c1.3,0,2.4,0.4,3.3,1.1
						c0.9,0.7,1.2,1.8,1.1,3.1c-0.1,2.3-1.3,5-3.4,8.2c-2.1,3.2-5.2,6.4-9.3,9.5c-4.1,3.1-9.2,5.7-15.3,7.7
						C388.3,212,381.1,213,373,213z M356,148.4h33.8V148c0-4.3-0.6-8-1.9-11.2c-1.3-3.2-3.2-5.7-5.8-7.4c-2.6-1.7-5.7-2.6-9.3-2.6
						s-6.6,0.9-9.1,2.6c-2.5,1.7-4.4,4.2-5.7,7.4c-1.3,3.2-2,6.9-2,11.2V148.4z"/>
					<path class="st1" d="M480.6,211c-1.1,0-2-0.4-2.9-1.3c-0.9-0.9-1.3-1.8-1.3-2.9c0-0.7,0.1-1.3,0.2-1.8l47-128.4
						c0.4-1.5,1.2-2.8,2.5-3.9c1.3-1.1,3-1.7,5.3-1.7H561c2.3,0,4,0.6,5.3,1.7c1.3,1.1,2.1,2.4,2.5,3.9L615.6,205
						c0.3,0.5,0.4,1.1,0.4,1.8c0,1.1-0.4,2-1.3,2.9c-0.9,0.9-1.9,1.3-3.1,1.3H587c-2,0-3.5-0.5-4.5-1.5s-1.6-1.9-1.9-2.7l-7.8-20.4
						h-53.4l-7.6,20.4c-0.3,0.8-0.9,1.7-1.8,2.7c-0.9,1-2.5,1.5-4.8,1.5H480.6z M527.6,157.6h37.2L546,104.8L527.6,157.6z"/>
					<path class="st1" d="M634.6,211c-1.5,0-2.7-0.5-3.6-1.4c-0.9-0.9-1.4-2.1-1.4-3.6V74c0-1.5,0.5-2.7,1.4-3.6
						c0.9-0.9,2.1-1.4,3.6-1.4h23.6c1.5,0,2.7,0.5,3.6,1.4c0.9,0.9,1.4,2.1,1.4,3.6v132c0,1.5-0.5,2.7-1.4,3.6
						c-0.9,0.9-2.1,1.4-3.6,1.4H634.6z"/>
					<path class="st1" d="M691.8,211c-1.5,0-2.7-0.5-3.6-1.4c-0.9-0.9-1.4-2.1-1.4-3.6V74c0-1.5,0.5-2.7,1.4-3.6
						c0.9-0.9,2.1-1.4,3.6-1.4h23.6c1.5,0,2.7,0.5,3.6,1.4c0.9,0.9,1.4,2.1,1.4,3.6v132c0,1.5-0.5,2.7-1.4,3.6
						c-0.9,0.9-2.1,1.4-3.6,1.4H691.8z"/>
				</g>
			</g>
		</g>
	</g>
	<g>
		
			<image style="overflow:visible;opacity:0.2;" width="642" height="243" xlink:href="49228ADC6472A3B6.png"  transform="matrix(1 0 0 1 254 252)">
		</image>
		<g>
			<g>
				<path class="st1" d="M743.7,377H320.8c-5.6,0-10.1-4.5-10.1-10.1v-27.8c0-5.6,4.5-10.1,10.1-10.1h422.8
					c5.6,0,10.1,4.5,10.1,10.1v27.8C753.7,372.5,749.2,377,743.7,377z"/>
				<path class="st1" d="M874.2,362.2l-130.3,75.2c-6.7,3.9-15.2-1-15.2-8.8V278.2c0-7.8,8.4-12.6,15.2-8.8l130.3,75.2
					C880.9,348.6,880.9,358.3,874.2,362.2z"/>
			</g>
		</g>
	</g>
</g>
</svg>
